<svg xmlns="http://www.w3.org/2000/svg" xmlns:xlink="http://www.w3.org/1999/xlink" viewBox="0 0 148.3 132.9"><defs><style>.cls-1{fill:url(#Orange_Yellow);}</style><linearGradient id="Orange_Yellow" y1="66.45" x2="148.3" y2="66.45" gradientUnits="userSpaceOnUse"><stop offset="0" stop-color="#fff33b"/><stop offset="0.04" stop-color="#fee72e"/><stop offset="0.12" stop-color="#fed51b"/><stop offset="0.2" stop-color="#fdca10"/><stop offset="0.28" stop-color="#fdc70c"/><stop offset="0.67" stop-color="#f3903f"/><stop offset="0.89" stop-color="#ed683c"/><stop offset="1" stop-color="#e93e3a"/></linearGradient></defs><title>Asset 2</title><g id="Layer_2" data-name="Layer 2"><g id="Layer_1-2" data-name="Layer 1"><path class="cls-1" d="M92,70.12a2,2,0,0,1-2.13-1.6c-.3-1.68-.66-3.37-.17-4.76,3.66-10.23,8-20.22,11.41-30.53a5.7,5.7,0,0,0,.23-2.27,5.78,5.78,0,0,0-8.3-4.69,5.18,5.18,0,0,0-2.49,2.08C85.19,38.65,81,49.53,76.08,60.1A14.65,14.65,0,0,1,72.78,64a2,2,0,0,1-2.33.32l-.4-.23a2,2,0,0,1-1-2.21c1.72-6.63,3.41-13.27,5.17-19.9.73-2.75,2.21-5.44,2.3-8.19a6.18,6.18,0,0,0,0-1c-.53-4.36-4.17-6.43-8-4.23a2.53,2.53,0,0,0-1.1,1.07,171.21,171.21,0,0,0-9.73,24.39c-2.38,8-3.76,16.25-5.5,24.75A2,2,0,0,1,49.13,80C46.4,78,43.78,76,40.82,75.2c-4.13-1-9.3-1.13-13.1.5-4.45,1.9-3.85,7.33.25,9.38,15,7.5,15.9,16.33,13.12,33.11a6.48,6.48,0,0,1-.27,1c-.1.27-.19.55-.28.82-2.84,8.18-13.11,11.14-19.64,5.47l-.13-.12c-23.55-20.82-26-54.46-12.7-83C21.59,13.57,52.79-3.62,83.93.65c32.14,4.4,57,28.05,62.58,59.58,7,39.52-6.3,64.64-45.26,72.23-8.1,1.58-10.62-1.1-8.21-9.14,8-26.9,6.36-40.2,20.58-64.49,1.18-2,3.1-4,3.26-6.1a12.43,12.43,0,0,0-.09-2.51,5.69,5.69,0,0,0-8.5-4.25,3.73,3.73,0,0,0-1.1,1C102.19,54,98,61.7,93.52,69.17a2,2,0,0,1-1.51,1Z"/></g></g></svg>