<?xml version="1.0" standalone="no"?>
<!DOCTYPE svg PUBLIC "-//W3C//DTD SVG 20010904//EN"
 "http://www.w3.org/TR/2001/REC-SVG-20010904/DTD/svg10.dtd">
<svg version="1.0" xmlns="http://www.w3.org/2000/svg"
 width="592.000000pt" height="592.000000pt" viewBox="0 0 592.000000 592.000000"
 preserveAspectRatio="xMidYMid meet">
<metadata>
Created by potrace 1.14, written by Peter Selinger 2001-2017
</metadata>
<g transform="translate(0.000000,592.000000) scale(0.100000,-0.100000)"
fill="#000000" stroke="none">
<path d="M2758 5605 c-1 -1 -30 -6 -63 -9 -33 -4 -78 -9 -100 -13 -22 -3 -51
-7 -65 -8 -24 -3 -51 -8 -110 -20 -14 -3 -38 -8 -55 -11 -96 -17 -358 -97
-440 -133 -11 -5 -56 -24 -100 -42 -44 -18 -89 -39 -100 -46 -11 -7 -27 -13
-37 -13 -10 0 -18 -4 -18 -9 0 -5 -9 -12 -20 -16 -38 -12 -251 -137 -278 -162
-7 -7 -17 -13 -22 -13 -13 0 -218 -157 -305 -233 -95 -84 -220 -210 -290 -292
-27 -32 -55 -63 -60 -69 -6 -6 -35 -45 -65 -86 -30 -41 -57 -77 -60 -80 -3 -3
-11 -14 -17 -25 -7 -11 -38 -60 -69 -109 -91 -144 -159 -282 -256 -514 -6 -15
-12 -30 -12 -34 -1 -3 -4 -10 -8 -14 -5 -4 -8 -17 -8 -29 0 -12 -3 -25 -8 -29
-4 -4 -7 -11 -8 -14 0 -4 -3 -14 -7 -22 -24 -61 -93 -316 -113 -415 -14 -70
-25 -140 -30 -186 -3 -30 -7 -56 -9 -59 -11 -17 -20 -203 -19 -385 0 -215 7
-315 30 -445 3 -19 7 -44 9 -55 12 -74 60 -272 75 -310 26 -66 60 -162 60
-168 0 -9 30 -76 83 -187 38 -79 126 -230 144 -248 7 -7 13 -17 13 -22 0 -24
191 -253 309 -370 142 -142 208 -185 312 -209 103 -24 246 -5 336 45 96 54
140 95 196 187 57 93 71 149 103 417 11 83 12 360 2 403 -37 168 -58 223 -121
317 -37 56 -150 168 -214 211 -26 18 -50 35 -53 38 -8 9 -59 39 -140 80 -107
55 -157 117 -164 205 -3 26 2 56 11 73 8 15 14 30 14 33 -2 9 46 55 70 67 22
12 63 28 81 32 4 1 22 7 40 12 26 8 118 18 193 21 36 2 170 -16 220 -28 61
-16 167 -64 196 -90 8 -8 20 -14 26 -14 6 0 13 -4 15 -8 2 -5 33 -29 69 -54
116 -78 153 -52 185 132 4 22 9 46 29 150 3 14 7 36 10 50 3 14 7 36 10 50 3
14 8 41 11 60 7 39 9 48 23 105 5 22 12 51 15 65 36 176 101 418 143 530 3 8
8 23 10 33 1 10 10 31 18 48 9 16 13 29 9 29 -4 0 -2 6 4 13 6 6 10 15 11 20
0 8 36 110 50 142 5 11 33 79 62 150 58 143 112 266 163 365 27 53 41 69 78
88 51 26 135 36 157 18 8 -6 15 -9 16 -6 2 7 75 -43 75 -52 0 -4 6 -13 14 -21
24 -23 44 -108 39 -167 -2 -30 -21 -107 -43 -170 -22 -63 -53 -167 -70 -230
-17 -63 -33 -124 -36 -135 -3 -11 -7 -27 -9 -35 -1 -8 -5 -22 -8 -30 -7 -18
-75 -284 -83 -320 -3 -14 -7 -33 -10 -42 -3 -9 -7 -26 -9 -37 -3 -12 -8 -31
-11 -43 -3 -13 -7 -30 -9 -38 -2 -8 -4 -15 -5 -15 -1 0 -3 -12 -4 -27 -6 -57
76 -110 128 -82 26 13 83 68 120 115 20 26 97 187 171 359 15 36 41 93 56 128
16 34 29 65 29 67 0 2 13 33 29 67 15 35 43 97 61 138 117 272 266 567 304
602 43 39 125 67 184 62 51 -4 139 -49 147 -75 4 -11 10 -19 15 -19 18 0 50
-109 44 -154 -4 -38 -54 -193 -93 -289 -6 -16 -11 -34 -11 -41 0 -6 -4 -16
-10 -22 -5 -5 -11 -19 -13 -31 -2 -13 -6 -26 -10 -29 -4 -4 -7 -16 -7 -26 0
-10 -4 -18 -8 -18 -5 0 -9 -6 -9 -12 0 -13 -134 -363 -153 -403 -6 -11 -19
-45 -29 -75 -11 -30 -43 -116 -71 -190 -62 -164 -65 -185 -49 -278 9 -57 17
-77 35 -88 39 -26 72 -27 97 -2 18 19 137 210 181 293 49 91 244 402 365 584
73 109 221 130 321 44 59 -51 77 -90 84 -185 6 -73 -11 -126 -68 -213 -108
-164 -292 -506 -279 -518 3 -4 2 -7 -3 -7 -10 0 -40 -69 -36 -82 1 -5 -2 -8
-6 -8 -4 0 -14 -17 -21 -37 -7 -21 -21 -56 -31 -78 -18 -40 -124 -357 -130
-390 -1 -3 -10 -35 -21 -72 -11 -38 -21 -77 -23 -88 -2 -11 -11 -47 -19 -80
-9 -33 -18 -71 -21 -85 -2 -14 -11 -56 -20 -95 -10 -38 -19 -86 -22 -105 -3
-19 -8 -38 -11 -43 -2 -4 -6 -20 -9 -35 -6 -41 -33 -164 -53 -247 -5 -22 -12
-51 -14 -65 -3 -14 -10 -43 -15 -65 -6 -22 -14 -53 -17 -70 -3 -16 -12 -55
-20 -85 -9 -30 -18 -66 -21 -80 -2 -14 -7 -32 -10 -40 -3 -8 -8 -24 -10 -36
-2 -11 -24 -92 -50 -180 -78 -271 -69 -380 36 -431 39 -19 58 -21 140 -18 52
1 109 6 125 10 17 4 39 9 50 10 11 2 20 4 20 5 0 1 11 3 25 6 14 2 52 11 85
20 33 8 69 18 80 20 22 6 21 5 85 23 292 81 583 222 815 396 73 55 242 215
290 275 61 77 105 138 116 163 7 15 15 27 19 27 22 0 195 398 214 493 2 7 7
25 11 42 5 16 9 39 10 50 1 11 5 27 8 35 7 18 19 90 32 180 27 199 27 597 1
810 -2 19 -7 60 -11 90 -11 89 -15 112 -26 175 -6 33 -12 69 -14 80 -21 135
-110 448 -162 565 -8 19 -24 55 -35 80 -41 92 -150 307 -171 335 -4 5 -26 39
-48 75 -42 67 -162 232 -189 260 -8 9 -37 43 -65 75 -69 82 -225 235 -310 303
-38 31 -79 65 -90 75 -31 29 -292 201 -360 238 -105 56 -248 125 -300 144 -27
10 -54 22 -60 25 -22 15 -325 111 -395 125 -8 2 -15 4 -15 5 0 1 -12 3 -26 5
-14 2 -45 9 -70 15 -24 7 -60 14 -79 15 -19 1 -44 5 -55 8 -11 3 -45 9 -75 12
-30 4 -71 9 -90 12 -41 5 -486 13 -492 8z"/>
</g>
</svg>
